<?xml version="1.0" encoding="utf-8"?>
<!-- Generator: Adobe Illustrator 25.4.1, SVG Export Plug-In . SVG Version: 6.00 Build 0)  -->
<svg version="1.1" id="Layer_1" xmlns="http://www.w3.org/2000/svg" xmlns:xlink="http://www.w3.org/1999/xlink" x="0px" y="0px"
	 viewBox="0 0 470.2 470.2" style="enable-background:new 0 0 470.2 470.2;" xml:space="preserve">
<style type="text/css">
	.st0{fill:#FFFFFF;}
</style>
<g>
	<path class="st0" d="M427.1,296.2c-2.1-2.3-5.5-3.2-8.5-2.3c-15.9,4.8-33.7,7.3-51.7,7.3c-101.7,0-184.3-81.2-184.3-180.9
		c0-22.1,4.2-44.4,13-68c1.1-3,0.4-6.2-1.7-8.5c-2.1-2.3-5.4-3.1-8.3-2.3c-41.9,12.1-78,36.7-104.3,71.3
		C54.8,147.3,41,188.4,41,231.7c0,108.8,90.4,197.4,201.7,197.4l0,0c40.2,0,79-11.7,112.6-34c33.4-22.3,58.8-53.5,73.5-90.3
		C429.8,301.9,429.2,298.5,427.1,296.2z M242.6,412.6c-102.1,0-185.1-81.2-185.1-180.9c0-74.8,47.4-142.3,117.2-169.3
		c-5.9,19.7-8.7,38.7-8.8,57.8c0,52.8,20.9,102.5,58.9,139.7c37.9,37.2,88.3,57.7,141.9,57.7c13.5,0,26.8-1.3,39.5-3.8
		C375.4,373.6,311.6,412.6,242.6,412.6z"/>
</g>
</svg>
