<?xml version="1.0" encoding="utf-8"?>
<!-- Generator: Adobe Illustrator 25.4.1, SVG Export Plug-In . SVG Version: 6.00 Build 0)  -->
<svg version="1.1" id="Layer_1" xmlns="http://www.w3.org/2000/svg" xmlns:xlink="http://www.w3.org/1999/xlink" x="0px" y="0px"
	 viewBox="0 0 512 512" style="enable-background:new 0 0 512 512;" xml:space="preserve">
<style type="text/css">
	.st0{fill:#FFFFFF;}
</style>
<g>
	<g>
		<g>
			<path class="st0" d="M256,141.6c-63.1,0-114.4,51.3-114.4,114.4S192.9,370.4,256,370.4S370.4,319.1,370.4,256
				S319.1,141.6,256,141.6z M256,357.2c-55.8,0-101.2-45.4-101.2-101.2S200.2,154.8,256,154.8S357.2,200.2,357.2,256
				S311.8,357.2,256,357.2z"/>
			<rect x="249.4" y="40.4" class="st0" width="13.2" height="87.6"/>
			
				<rect x="224" y="94" transform="matrix(0.9848 -0.1737 0.1737 0.9848 -15.9688 41.7669)" class="st0" width="13.2" height="36.2"/>
			<rect x="176.3" y="111.4" transform="matrix(0.866 -0.5 0.5 0.866 -40.2235 108.8216)" class="st0" width="13.2" height="36.2"/>
			
				<rect x="137.5" y="144" transform="matrix(0.6428 -0.766 0.766 0.6428 -72.7021 168.263)" class="st0" width="13.2" height="36.2"/>
			
				<rect x="112.1" y="187.9" transform="matrix(0.342 -0.9397 0.9397 0.342 -115.5046 247.1197)" class="st0" width="13.2" height="36.2"/>
			<rect x="91.8" y="249.4" class="st0" width="36.2" height="13.2"/>
			
				<rect x="100.6" y="299.3" transform="matrix(0.9397 -0.342 0.342 0.9397 -97.4828 59.0465)" class="st0" width="36.2" height="13.2"/>
			
				<rect x="126" y="343.3" transform="matrix(0.7661 -0.6428 0.6428 0.7661 -191.202 174.4491)" class="st0" width="36.2" height="13.2"/>
			<rect x="164.8" y="375.9" transform="matrix(0.5 -0.866 0.866 0.5 -239.7938 349.675)" class="st0" width="36.2" height="13.2"/>
			
				<rect x="212.5" y="393.3" transform="matrix(0.1736 -0.9848 0.9848 0.1736 -203.2497 557.5851)" class="st0" width="36.2" height="13.2"/>
			
				<rect x="274.7" y="381.8" transform="matrix(0.9848 -0.1737 0.1737 0.9848 -65.1799 54.9491)" class="st0" width="13.2" height="36.2"/>
			
				<rect x="322.4" y="364.5" transform="matrix(0.866 -0.5 0.5 0.866 -147.1942 215.7707)" class="st0" width="13.2" height="36.2"/>
			
				<rect x="361.3" y="331.8" transform="matrix(0.6428 -0.766 0.766 0.6428 -136.6277 406.7821)" class="st0" width="13.2" height="36.2"/>
			
				<rect x="386.7" y="287.9" transform="matrix(0.342 -0.9397 0.9397 0.342 -28.7387 570.9078)" class="st0" width="13.2" height="36.2"/>
			<rect x="384" y="249.4" class="st0" width="36.2" height="13.2"/>
			
				<rect x="375.2" y="199.4" transform="matrix(0.9397 -0.342 0.342 0.9397 -46.75 146.9318)" class="st0" width="36.2" height="13.2"/>
			
				<rect x="349.9" y="155.4" transform="matrix(0.7661 -0.6428 0.6428 0.7661 -18.0883 274.4319)" class="st0" width="36.2" height="13.2"/>
			<rect x="311" y="122.9" transform="matrix(0.5 -0.866 0.866 0.5 52.3949 349.7039)" class="st0" width="36.2" height="13.2"/>
			
				<rect x="263.3" y="105.5" transform="matrix(0.1736 -0.9848 0.9848 0.1736 122.1097 369.736)" class="st0" width="36.2" height="13.2"/>
			
				<rect x="190.6" y="50.8" transform="matrix(0.9397 -0.342 0.342 0.9397 -20.4443 73.1548)" class="st0" width="13.2" height="87.6"/>
			
				<rect x="138.9" y="80.6" transform="matrix(0.766 -0.6428 0.6428 0.766 -45.8986 122.6724)" class="st0" width="13.2" height="87.6"/>
			<rect x="100.6" y="126.3" transform="matrix(0.5 -0.866 0.866 0.5 -93.7056 177.8841)" class="st0" width="13.2" height="87.6"/>
			
				<rect x="80.2" y="182.4" transform="matrix(0.1737 -0.9848 0.9848 0.1737 -151.0067 272.361)" class="st0" width="13.2" height="87.6"/>
			
				<rect x="43" y="279.2" transform="matrix(0.9848 -0.1737 0.1737 0.9848 -48.329 19.4247)" class="st0" width="87.6" height="13.2"/>
			<rect x="63.4" y="335.3" transform="matrix(0.866 -0.5 0.5 0.866 -156.5843 99.4078)" class="st0" width="87.6" height="13.2"/>
			
				<rect x="101.7" y="381" transform="matrix(0.6428 -0.766 0.766 0.6428 -244.9374 249.9314)" class="st0" width="87.6" height="13.2"/>
			
				<rect x="153.5" y="410.8" transform="matrix(0.342 -0.9397 0.9397 0.342 -262.4735 460.0295)" class="st0" width="87.6" height="13.2"/>
			<rect x="249.4" y="384" class="st0" width="13.2" height="87.6"/>
			
				<rect x="308.1" y="373.7" transform="matrix(0.9397 -0.342 0.342 0.9397 -123.7899 132.8208)" class="st0" width="13.2" height="87.6"/>
			
				<rect x="359.8" y="343.8" transform="matrix(0.766 -0.6428 0.6428 0.766 -163.4461 326.2245)" class="st0" width="13.2" height="87.6"/>
			<rect x="398.2" y="298.1" transform="matrix(0.5 -0.866 0.866 0.5 -93.7236 521.5129)" class="st0" width="13.2" height="87.6"/>
			
				<rect x="418.6" y="242" transform="matrix(0.1737 -0.9848 0.9848 0.1737 69.8691 654.9102)" class="st0" width="13.2" height="87.6"/>
			
				<rect x="381.4" y="219.6" transform="matrix(0.9848 -0.1737 0.1737 0.9848 -32.8251 77.2932)" class="st0" width="87.6" height="13.2"/>
			<rect x="361" y="163.5" transform="matrix(0.866 -0.5 0.5 0.866 -30.8178 225.1893)" class="st0" width="87.6" height="13.2"/>
			
				<rect x="322.6" y="117.8" transform="matrix(0.6428 -0.766 0.766 0.6428 35.6124 325.12)" class="st0" width="87.6" height="13.2"/>
			
				<rect x="271" y="87.9" transform="matrix(0.342 -0.9397 0.9397 0.342 118.2534 357.9948)" class="st0" width="87.6" height="13.2"/>
		</g>
	</g>
</g>
</svg>
